<mxfile host="app.diagrams.net" agent="Mozilla/5.0 (Windows NT 10.0; Win64; x64) AppleWebKit/537.36 (KHTML, like Gecko) Chrome/132.0.0.0 Safari/537.36" version="26.0.11">
  <diagram name="Page-1" id="djvV8Q6ulQuhP49VOzXK">
    <mxGraphModel dx="1034" dy="412" grid="1" gridSize="10" guides="1" tooltips="1" connect="1" arrows="1" fold="1" page="1" pageScale="1" pageWidth="1100" pageHeight="850" math="0" shadow="0">
      <root>
        <mxCell id="0" />
        <mxCell id="1" parent="0" />
        <mxCell id="sI4e7baXWdM5xLgFV06Y-1" value="farm" style="rounded=1;whiteSpace=wrap;html=1;" vertex="1" parent="1">
          <mxGeometry x="1050" y="270" width="120" height="60" as="geometry" />
        </mxCell>
        <mxCell id="sI4e7baXWdM5xLgFV06Y-2" value="weather" style="rounded=1;whiteSpace=wrap;html=1;" vertex="1" parent="1">
          <mxGeometry x="1280" y="270" width="120" height="60" as="geometry" />
        </mxCell>
        <mxCell id="sI4e7baXWdM5xLgFV06Y-3" value="" style="edgeStyle=entityRelationEdgeStyle;fontSize=12;html=1;endArrow=ERmandOne;startArrow=ERmandOne;rounded=0;exitX=1;exitY=0.5;exitDx=0;exitDy=0;" edge="1" parent="1" source="sI4e7baXWdM5xLgFV06Y-1">
          <mxGeometry width="100" height="100" relative="1" as="geometry">
            <mxPoint x="1180" y="400" as="sourcePoint" />
            <mxPoint x="1280" y="300" as="targetPoint" />
          </mxGeometry>
        </mxCell>
        <mxCell id="sI4e7baXWdM5xLgFV06Y-4" value="fields" style="rounded=1;whiteSpace=wrap;html=1;" vertex="1" parent="1">
          <mxGeometry x="790" y="410" width="120" height="60" as="geometry" />
        </mxCell>
        <mxCell id="sI4e7baXWdM5xLgFV06Y-5" value="" style="edgeStyle=elbowEdgeStyle;fontSize=12;html=1;endArrow=ERoneToMany;rounded=0;entryX=0.445;entryY=0.02;entryDx=0;entryDy=0;exitX=0.5;exitY=1;exitDx=0;exitDy=0;elbow=vertical;entryPerimeter=0;" edge="1" parent="1" source="sI4e7baXWdM5xLgFV06Y-1" target="sI4e7baXWdM5xLgFV06Y-4">
          <mxGeometry width="100" height="100" relative="1" as="geometry">
            <mxPoint x="1116.5600000000004" y="327.17999999999995" as="sourcePoint" />
            <mxPoint x="870.0000000000002" y="410" as="targetPoint" />
          </mxGeometry>
        </mxCell>
        <mxCell id="sI4e7baXWdM5xLgFV06Y-6" value="crops" style="rounded=1;whiteSpace=wrap;html=1;" vertex="1" parent="1">
          <mxGeometry x="1010" y="410" width="120" height="60" as="geometry" />
        </mxCell>
        <mxCell id="sI4e7baXWdM5xLgFV06Y-7" value="" style="edgeStyle=entityRelationEdgeStyle;fontSize=12;html=1;endArrow=ERoneToMany;rounded=0;" edge="1" parent="1" target="sI4e7baXWdM5xLgFV06Y-4">
          <mxGeometry width="100" height="100" relative="1" as="geometry">
            <mxPoint x="980" y="440" as="sourcePoint" />
            <mxPoint x="950" y="520" as="targetPoint" />
            <Array as="points">
              <mxPoint x="940" y="440" />
              <mxPoint x="990" y="440" />
              <mxPoint x="970" y="460" />
              <mxPoint x="950" y="440" />
              <mxPoint x="980" y="500" />
              <mxPoint x="1020" y="490" />
            </Array>
          </mxGeometry>
        </mxCell>
        <mxCell id="sI4e7baXWdM5xLgFV06Y-8" value="pest_and_disease" style="rounded=1;whiteSpace=wrap;html=1;" vertex="1" parent="1">
          <mxGeometry x="1010" y="620" width="120" height="60" as="geometry" />
        </mxCell>
        <mxCell id="sI4e7baXWdM5xLgFV06Y-9" value="animals" style="rounded=1;whiteSpace=wrap;html=1;" vertex="1" parent="1">
          <mxGeometry x="1420" y="410" width="120" height="60" as="geometry" />
        </mxCell>
        <mxCell id="sI4e7baXWdM5xLgFV06Y-10" value="" style="edgeStyle=elbowEdgeStyle;fontSize=12;html=1;endArrow=ERoneToMany;rounded=0;entryX=0.457;entryY=0.021;entryDx=0;entryDy=0;entryPerimeter=0;elbow=vertical;" edge="1" parent="1" source="sI4e7baXWdM5xLgFV06Y-1" target="sI4e7baXWdM5xLgFV06Y-9">
          <mxGeometry width="100" height="100" relative="1" as="geometry">
            <mxPoint x="1180.44" y="310" as="sourcePoint" />
            <mxPoint x="1499.56" y="417.72" as="targetPoint" />
            <Array as="points">
              <mxPoint x="1300" y="370" />
            </Array>
          </mxGeometry>
        </mxCell>
        <mxCell id="sI4e7baXWdM5xLgFV06Y-11" value="sales" style="rounded=1;whiteSpace=wrap;html=1;" vertex="1" parent="1">
          <mxGeometry x="1220" y="410" width="120" height="60" as="geometry" />
        </mxCell>
        <mxCell id="sI4e7baXWdM5xLgFV06Y-12" value="" style="edgeStyle=elbowEdgeStyle;fontSize=12;html=1;endArrow=ERoneToMany;rounded=0;exitX=0.75;exitY=1;exitDx=0;exitDy=0;elbow=vertical;entryX=0.455;entryY=0.02;entryDx=0;entryDy=0;entryPerimeter=0;" edge="1" parent="1" target="sI4e7baXWdM5xLgFV06Y-11">
          <mxGeometry width="100" height="100" relative="1" as="geometry">
            <mxPoint x="1110" y="330.00000000000006" as="sourcePoint" />
            <mxPoint x="1274" y="407" as="targetPoint" />
            <Array as="points">
              <mxPoint x="1190" y="370" />
            </Array>
          </mxGeometry>
        </mxCell>
        <mxCell id="sI4e7baXWdM5xLgFV06Y-13" value="tools" style="rounded=1;whiteSpace=wrap;html=1;" vertex="1" parent="1">
          <mxGeometry x="460" y="410" width="120" height="60" as="geometry" />
        </mxCell>
        <mxCell id="sI4e7baXWdM5xLgFV06Y-14" value="" style="edgeStyle=elbowEdgeStyle;fontSize=12;html=1;endArrow=ERoneToMany;rounded=0;entryX=0.443;entryY=0.012;entryDx=0;entryDy=0;exitX=0.5;exitY=1;exitDx=0;exitDy=0;elbow=vertical;entryPerimeter=0;" edge="1" parent="1" source="sI4e7baXWdM5xLgFV06Y-1" target="sI4e7baXWdM5xLgFV06Y-13">
          <mxGeometry width="100" height="100" relative="1" as="geometry">
            <mxPoint x="1150" y="358" as="sourcePoint" />
            <mxPoint x="1244" y="430" as="targetPoint" />
          </mxGeometry>
        </mxCell>
        <mxCell id="sI4e7baXWdM5xLgFV06Y-15" value="employees" style="rounded=1;whiteSpace=wrap;html=1;" vertex="1" parent="1">
          <mxGeometry x="630" y="410" width="120" height="60" as="geometry" />
        </mxCell>
        <mxCell id="sI4e7baXWdM5xLgFV06Y-16" value="" style="edgeStyle=elbowEdgeStyle;fontSize=12;html=1;endArrow=ERoneToMany;rounded=0;entryX=0.5;entryY=0;entryDx=0;entryDy=0;exitX=0.5;exitY=1;exitDx=0;exitDy=0;elbow=vertical;" edge="1" parent="1" source="sI4e7baXWdM5xLgFV06Y-1" target="sI4e7baXWdM5xLgFV06Y-15">
          <mxGeometry width="100" height="100" relative="1" as="geometry">
            <mxPoint x="1130" y="330" as="sourcePoint" />
            <mxPoint x="1390" y="422" as="targetPoint" />
          </mxGeometry>
        </mxCell>
        <mxCell id="sI4e7baXWdM5xLgFV06Y-17" value="tasks" style="rounded=1;whiteSpace=wrap;html=1;" vertex="1" parent="1">
          <mxGeometry x="550" y="540" width="120" height="60" as="geometry" />
        </mxCell>
        <mxCell id="sI4e7baXWdM5xLgFV06Y-18" value="" style="edgeStyle=elbowEdgeStyle;fontSize=12;html=1;endArrow=ERoneToMany;rounded=0;entryX=0.456;entryY=1.006;entryDx=0;entryDy=0;entryPerimeter=0;elbow=vertical;" edge="1" parent="1">
          <mxGeometry width="100" height="100" relative="1" as="geometry">
            <mxPoint x="610" y="540" as="sourcePoint" />
            <mxPoint x="500.0000000000002" y="470.35999999999996" as="targetPoint" />
          </mxGeometry>
        </mxCell>
        <mxCell id="sI4e7baXWdM5xLgFV06Y-19" value="" style="edgeStyle=elbowEdgeStyle;fontSize=12;html=1;endArrow=ERoneToMany;rounded=0;elbow=vertical;entryX=0.5;entryY=1;entryDx=0;entryDy=0;" edge="1" parent="1" target="sI4e7baXWdM5xLgFV06Y-15">
          <mxGeometry width="100" height="100" relative="1" as="geometry">
            <mxPoint x="610" y="540" as="sourcePoint" />
            <mxPoint x="680" y="465" as="targetPoint" />
            <Array as="points">
              <mxPoint x="650" y="505" />
            </Array>
          </mxGeometry>
        </mxCell>
        <mxCell id="sI4e7baXWdM5xLgFV06Y-20" value="" style="edgeStyle=entityRelationEdgeStyle;fontSize=12;html=1;endArrow=ERoneToMany;rounded=0;exitX=0.75;exitY=1;exitDx=0;exitDy=0;entryX=0;entryY=0.5;entryDx=0;entryDy=0;" edge="1" parent="1" target="sI4e7baXWdM5xLgFV06Y-11">
          <mxGeometry width="100" height="100" relative="1" as="geometry">
            <mxPoint x="1130" y="440" as="sourcePoint" />
            <mxPoint x="1210" y="440" as="targetPoint" />
            <Array as="points">
              <mxPoint x="1380" y="632" />
              <mxPoint x="1280" y="662" />
              <mxPoint x="1220" y="440" />
              <mxPoint x="1300" y="662" />
            </Array>
          </mxGeometry>
        </mxCell>
        <mxCell id="sI4e7baXWdM5xLgFV06Y-21" value="" style="edgeStyle=entityRelationEdgeStyle;fontSize=12;html=1;endArrow=ERoneToMany;rounded=0;" edge="1" parent="1" target="sI4e7baXWdM5xLgFV06Y-11">
          <mxGeometry width="100" height="100" relative="1" as="geometry">
            <mxPoint x="1390" y="440" as="sourcePoint" />
            <mxPoint x="1510" y="439.5" as="targetPoint" />
            <Array as="points">
              <mxPoint x="1670" y="631.5" />
              <mxPoint x="1410" y="440" />
              <mxPoint x="1570" y="661.5" />
              <mxPoint x="1510" y="439.5" />
              <mxPoint x="1590" y="661.5" />
            </Array>
          </mxGeometry>
        </mxCell>
        <mxCell id="sI4e7baXWdM5xLgFV06Y-22" value="crops_pest_disease" style="rounded=1;whiteSpace=wrap;html=1;" vertex="1" parent="1">
          <mxGeometry x="1010" y="520" width="120" height="60" as="geometry" />
        </mxCell>
        <mxCell id="sI4e7baXWdM5xLgFV06Y-23" value="" style="edgeStyle=entityRelationEdgeStyle;fontSize=12;html=1;endArrow=ERoneToMany;rounded=0;entryX=0.5;entryY=0;entryDx=0;entryDy=0;" edge="1" parent="1" target="sI4e7baXWdM5xLgFV06Y-22">
          <mxGeometry width="100" height="100" relative="1" as="geometry">
            <mxPoint x="1050" y="469.05" as="sourcePoint" />
            <mxPoint x="980" y="469.05" as="targetPoint" />
            <Array as="points">
              <mxPoint x="1010" y="469.05" />
              <mxPoint x="1060" y="469.05" />
              <mxPoint x="1040" y="489.05" />
              <mxPoint x="1020" y="469.05" />
              <mxPoint x="1050" y="529.05" />
              <mxPoint x="1090" y="519.05" />
            </Array>
          </mxGeometry>
        </mxCell>
        <mxCell id="sI4e7baXWdM5xLgFV06Y-24" value="" style="edgeStyle=entityRelationEdgeStyle;fontSize=12;html=1;endArrow=ERoneToMany;rounded=0;entryX=0.5;entryY=1;entryDx=0;entryDy=0;exitX=0.37;exitY=0.003;exitDx=0;exitDy=0;exitPerimeter=0;" edge="1" parent="1" source="sI4e7baXWdM5xLgFV06Y-8" target="sI4e7baXWdM5xLgFV06Y-22">
          <mxGeometry width="100" height="100" relative="1" as="geometry">
            <mxPoint x="1060" y="479.05" as="sourcePoint" />
            <mxPoint x="1080" y="530" as="targetPoint" />
            <Array as="points">
              <mxPoint x="1020" y="479.05" />
              <mxPoint x="1070" y="479.05" />
              <mxPoint x="1050" y="499.05" />
              <mxPoint x="1030" y="479.05" />
              <mxPoint x="1060" y="539.05" />
              <mxPoint x="1100" y="529.05" />
            </Array>
          </mxGeometry>
        </mxCell>
      </root>
    </mxGraphModel>
  </diagram>
</mxfile>
